<svg width="93" height="28" viewBox="0 0 93 28" fill="none" xmlns="http://www.w3.org/2000/svg">
<g clip-path="url(#clip0_53_771)">
<rect width="27.792" height="27.792" rx="6" fill="#00C89F"/>
<path d="M13.6748 6.34898L13.6758 6.34995L13.6777 6.34898L13.6768 6.34995C13.885 6.35317 14.0869 6.42218 14.252 6.54917L14.3672 6.65367C14.4733 6.76667 14.5515 6.90432 14.5938 7.05503L17.4717 17.2904L18.8877 13.5169L18.9492 13.3832C19.0208 13.2555 19.1209 13.145 19.2422 13.0609L19.3691 12.9867C19.5005 12.9225 19.6455 12.8891 19.793 12.889H42.1826C42.4391 12.8891 42.6848 12.9909 42.8662 13.1722L42.9307 13.2435C43.0717 13.4157 43.1504 13.6323 43.1504 13.8568C43.1503 14.0811 43.0716 14.2971 42.9307 14.4691L42.8662 14.5404C42.6848 14.7217 42.4391 14.8235 42.1826 14.8236H20.4639L18.2461 20.7367C18.1924 20.8798 18.1058 21.0073 17.9941 21.1097L17.875 21.2035C17.7474 21.288 17.6018 21.3404 17.4512 21.3578L17.2998 21.3636C17.147 21.3572 16.9983 21.3148 16.8662 21.2406L16.7402 21.1556C16.6202 21.0607 16.5253 20.9389 16.4619 20.8011L16.4092 20.6585L13.6123 10.7152L12.541 14.1449C12.4949 14.2926 12.4142 14.4263 12.3066 14.5355L12.1904 14.6361C12.0661 14.7275 11.9224 14.7875 11.7715 14.8119L11.6182 14.8236H-9.18262C-9.40715 14.8236 -9.62375 14.7459 -9.7959 14.6048L-9.86621 14.5404C-10.0476 14.359 -10.1503 14.1133 -10.1504 13.8568C-10.1504 13.6002 -10.0477 13.3537 -9.86621 13.1722L-9.7959 13.1078C-9.62376 12.9667 -9.40712 12.8891 -9.18262 12.889H10.9072L12.7383 7.02769L12.7959 6.88316C12.8653 6.74437 12.9677 6.6234 13.0947 6.5316L13.2275 6.45152C13.3648 6.38264 13.5169 6.34828 13.6719 6.34995L13.6729 6.34898H13.6748Z" fill="white" stroke="white" stroke-width="0.3"/>
</g>
<path d="M42.43 22.116C40.8167 22.116 39.4307 21.7934 38.272 21.148C37.128 20.488 36.248 19.564 35.632 18.376C35.016 17.1734 34.708 15.758 34.708 14.13C34.708 12.9127 34.884 11.82 35.236 10.852C35.588 9.86935 36.094 9.03335 36.754 8.34402C37.414 7.64002 38.2207 7.10469 39.174 6.73802C40.142 6.35669 41.2274 6.16602 42.43 6.16602C43.2367 6.16602 44.0287 6.26868 44.806 6.47402C45.5834 6.67935 46.2654 6.97269 46.852 7.35402C47.16 7.54469 47.3654 7.77935 47.468 8.05802C47.5707 8.32202 47.5927 8.58602 47.534 8.85002C47.4754 9.09935 47.3507 9.31202 47.16 9.48802C46.984 9.66402 46.7567 9.76668 46.478 9.79602C46.214 9.81069 45.9207 9.71535 45.598 9.51002C45.1434 9.21669 44.652 9.00402 44.124 8.87202C43.596 8.74002 43.0607 8.67402 42.518 8.67402C41.4767 8.67402 40.5967 8.88669 39.878 9.31202C39.1594 9.73735 38.6167 10.3534 38.25 11.16C37.8834 11.9667 37.7 12.9567 37.7 14.13C37.7 15.2887 37.8834 16.2787 38.25 17.1C38.6167 17.9214 39.1594 18.5447 39.878 18.97C40.5967 19.3954 41.4767 19.608 42.518 19.608C43.0754 19.608 43.6254 19.542 44.168 19.41C44.7107 19.2634 45.224 19.0434 45.708 18.75C46.0307 18.5594 46.3167 18.4787 46.566 18.508C46.83 18.5227 47.05 18.6107 47.226 18.772C47.402 18.9334 47.5194 19.1387 47.578 19.388C47.6367 19.6227 47.622 19.872 47.534 20.136C47.446 20.3854 47.27 20.6054 47.006 20.796C46.4194 21.2214 45.7154 21.5514 44.894 21.786C44.0874 22.006 43.266 22.116 42.43 22.116ZM53.5771 22.116C52.3598 22.116 51.4431 21.7714 50.8271 21.082C50.2111 20.378 49.9031 19.3514 49.9031 18.002V7.59602C49.9031 7.14135 50.0205 6.79668 50.2551 6.56202C50.4898 6.32735 50.8271 6.21002 51.2671 6.21002C51.7071 6.21002 52.0445 6.32735 52.2791 6.56202C52.5285 6.79668 52.6531 7.14135 52.6531 7.59602V17.87C52.6531 18.5447 52.7925 19.0434 53.0711 19.366C53.3645 19.6887 53.7751 19.85 54.3031 19.85C54.4205 19.85 54.5305 19.85 54.6331 19.85C54.7358 19.8354 54.8385 19.8207 54.9411 19.806C55.1465 19.7767 55.2858 19.8354 55.3591 19.982C55.4325 20.114 55.4691 20.3927 55.4691 20.818C55.4691 21.1847 55.3958 21.4707 55.2491 21.676C55.1025 21.8814 54.8605 22.006 54.5231 22.05C54.3765 22.0647 54.2225 22.0794 54.0611 22.094C53.8998 22.1087 53.7385 22.116 53.5771 22.116ZM58.2925 22.05C57.8525 22.05 57.5152 21.918 57.2805 21.654C57.0459 21.39 56.9285 21.0234 56.9285 20.554V12.48C56.9285 11.996 57.0459 11.6294 57.2805 11.38C57.5152 11.116 57.8525 10.984 58.2925 10.984C58.7325 10.984 59.0699 11.116 59.3045 11.38C59.5539 11.6294 59.6785 11.996 59.6785 12.48V20.554C59.6785 21.0234 59.5612 21.39 59.3265 21.654C59.0919 21.918 58.7472 22.05 58.2925 22.05ZM58.2925 8.93802C57.7792 8.93802 57.3759 8.81335 57.0825 8.56402C56.8039 8.30002 56.6645 7.94069 56.6645 7.48602C56.6645 7.01668 56.8039 6.65735 57.0825 6.40802C57.3759 6.15869 57.7792 6.03402 58.2925 6.03402C58.8205 6.03402 59.2239 6.15869 59.5025 6.40802C59.7812 6.65735 59.9205 7.01668 59.9205 7.48602C59.9205 7.94069 59.7812 8.30002 59.5025 8.56402C59.2239 8.81335 58.8205 8.93802 58.2925 8.93802ZM63.9 22.072C63.46 22.072 63.1226 21.9547 62.888 21.72C62.6533 21.4707 62.536 21.1187 62.536 20.664V12.348C62.536 11.8934 62.6533 11.5487 62.888 11.314C63.1226 11.0794 63.4526 10.962 63.878 10.962C64.3033 10.962 64.6333 11.0794 64.868 11.314C65.1026 11.5487 65.22 11.8934 65.22 12.348V13.844L64.978 13.294C65.3006 12.5167 65.7993 11.93 66.474 11.534C67.1633 11.1234 67.9406 10.918 68.806 10.918C69.6713 10.918 70.3826 11.0794 70.94 11.402C71.4973 11.7247 71.9153 12.216 72.194 12.876C72.4726 13.5214 72.612 14.3427 72.612 15.34V20.664C72.612 21.1187 72.4946 21.4707 72.26 21.72C72.0253 21.9547 71.688 22.072 71.248 22.072C70.808 22.072 70.4633 21.9547 70.214 21.72C69.9793 21.4707 69.862 21.1187 69.862 20.664V15.472C69.862 14.636 69.7006 14.0274 69.378 13.646C69.07 13.2647 68.586 13.074 67.926 13.074C67.1193 13.074 66.474 13.3307 65.99 13.844C65.5206 14.3427 65.286 15.01 65.286 15.846V20.664C65.286 21.6027 64.824 22.072 63.9 22.072ZM76.7691 22.05C76.3291 22.05 75.9918 21.918 75.7571 21.654C75.5224 21.39 75.4051 21.0234 75.4051 20.554V12.48C75.4051 11.996 75.5224 11.6294 75.7571 11.38C75.9918 11.116 76.3291 10.984 76.7691 10.984C77.2091 10.984 77.5464 11.116 77.7811 11.38C78.0304 11.6294 78.1551 11.996 78.1551 12.48V20.554C78.1551 21.0234 78.0378 21.39 77.8031 21.654C77.5684 21.918 77.2238 22.05 76.7691 22.05ZM76.7691 8.93802C76.2558 8.93802 75.8524 8.81335 75.5591 8.56402C75.2804 8.30002 75.1411 7.94069 75.1411 7.48602C75.1411 7.01668 75.2804 6.65735 75.5591 6.40802C75.8524 6.15869 76.2558 6.03402 76.7691 6.03402C77.2971 6.03402 77.7004 6.15869 77.9791 6.40802C78.2578 6.65735 78.3971 7.01668 78.3971 7.48602C78.3971 7.94069 78.2578 8.30002 77.9791 8.56402C77.7004 8.81335 77.2971 8.93802 76.7691 8.93802ZM81.7605 22.006C81.4379 22.006 81.1665 21.918 80.9465 21.742C80.7412 21.5514 80.6312 21.3094 80.6165 21.016C80.6165 20.7227 80.7412 20.4147 80.9905 20.092L84.5545 15.692V16.99L81.2105 12.876C80.9465 12.5534 80.8219 12.2454 80.8365 11.952C80.8512 11.6587 80.9612 11.424 81.1665 11.248C81.3865 11.0574 81.6579 10.962 81.9805 10.962C82.3179 10.962 82.5965 11.0207 82.8165 11.138C83.0512 11.2554 83.2639 11.4387 83.4545 11.688L86.0945 15.076H85.1265L87.7885 11.688C87.9939 11.4387 88.2065 11.2554 88.4265 11.138C88.6465 11.0207 88.9179 10.962 89.2405 10.962C89.5779 10.962 89.8492 11.0574 90.0545 11.248C90.2599 11.4387 90.3625 11.6807 90.3625 11.974C90.3772 12.2674 90.2525 12.5754 89.9885 12.898L86.6665 16.968V15.736L90.2305 20.092C90.4945 20.4 90.6192 20.7007 90.6045 20.994C90.5899 21.2874 90.4725 21.5294 90.2525 21.72C90.0472 21.9107 89.7759 22.006 89.4385 22.006C89.1159 22.006 88.8445 21.9474 88.6245 21.83C88.4045 21.7127 88.1919 21.5294 87.9865 21.28L85.1265 17.672H86.0505L83.2125 21.28C83.0219 21.5147 82.8165 21.698 82.5965 21.83C82.3765 21.9474 82.0979 22.006 81.7605 22.006Z" fill="white"/>
<defs>
<clipPath id="clip0_53_771">
<rect width="27.792" height="27.792" rx="6" fill="white"/>
</clipPath>
</defs>
</svg>
