<svg width="93" height="28" viewBox="0 0 93 28" fill="none" xmlns="http://www.w3.org/2000/svg">
<g clip-path="url(#clip0_56_3248)">
<rect width="27.792" height="27.792" rx="6" fill="#00C89F"/>
<path d="M13.6748 6.34898L13.6758 6.34995L13.6777 6.34898L13.6768 6.34995C13.885 6.35317 14.0869 6.42218 14.252 6.54917L14.3672 6.65367C14.4733 6.76667 14.5515 6.90432 14.5938 7.05503L17.4717 17.2904L18.8877 13.5169L18.9492 13.3832C19.0208 13.2555 19.1209 13.145 19.2422 13.0609L19.3691 12.9867C19.5005 12.9225 19.6455 12.8891 19.793 12.889H42.1826C42.4391 12.8891 42.6848 12.9909 42.8662 13.1722L42.9307 13.2435C43.0717 13.4157 43.1504 13.6323 43.1504 13.8568C43.1503 14.0811 43.0716 14.2971 42.9307 14.4691L42.8662 14.5404C42.6848 14.7217 42.4391 14.8235 42.1826 14.8236H20.4639L18.2461 20.7367C18.1924 20.8798 18.1058 21.0073 17.9941 21.1097L17.875 21.2035C17.7474 21.288 17.6018 21.3404 17.4512 21.3578L17.2998 21.3636C17.147 21.3572 16.9983 21.3148 16.8662 21.2406L16.7402 21.1556C16.6202 21.0607 16.5253 20.9389 16.4619 20.8011L16.4092 20.6585L13.6123 10.7152L12.541 14.1449C12.4949 14.2926 12.4142 14.4263 12.3066 14.5355L12.1904 14.6361C12.0661 14.7275 11.9224 14.7875 11.7715 14.8119L11.6182 14.8236H-9.18262C-9.40715 14.8236 -9.62375 14.7459 -9.7959 14.6048L-9.86621 14.5404C-10.0476 14.359 -10.1503 14.1133 -10.1504 13.8568C-10.1504 13.6002 -10.0477 13.3537 -9.86621 13.1722L-9.7959 13.1078C-9.62376 12.9667 -9.40712 12.8891 -9.18262 12.889H10.9072L12.7383 7.02769L12.7959 6.88316C12.8653 6.74437 12.9677 6.6234 13.0947 6.5316L13.2275 6.45152C13.3648 6.38264 13.5169 6.34828 13.6719 6.34995L13.6729 6.34898H13.6748Z" fill="white" stroke="white" stroke-width="0.3"/>
</g>
<path d="M42.4299 22.116C40.8166 22.116 39.4306 21.7934 38.2719 21.148C37.1279 20.488 36.2479 19.564 35.6319 18.376C35.0159 17.1734 34.7079 15.758 34.7079 14.13C34.7079 12.9127 34.8839 11.82 35.2359 10.852C35.5879 9.86935 36.0939 9.03335 36.7539 8.34402C37.4139 7.64002 38.2206 7.10469 39.1739 6.73802C40.1419 6.35669 41.2272 6.16602 42.4299 6.16602C43.2366 6.16602 44.0286 6.26868 44.8059 6.47402C45.5832 6.67935 46.2652 6.97269 46.8519 7.35402C47.1599 7.54469 47.3652 7.77935 47.4679 8.05802C47.5706 8.32202 47.5926 8.58602 47.5339 8.85002C47.4752 9.09935 47.3506 9.31202 47.1599 9.48802C46.9839 9.66402 46.7566 9.76668 46.4779 9.79602C46.2139 9.81069 45.9206 9.71535 45.5979 9.51002C45.1432 9.21669 44.6519 9.00402 44.1239 8.87202C43.5959 8.74002 43.0606 8.67402 42.5179 8.67402C41.4766 8.67402 40.5966 8.88669 39.8779 9.31202C39.1592 9.73735 38.6166 10.3534 38.2499 11.16C37.8832 11.9667 37.6999 12.9567 37.6999 14.13C37.6999 15.2887 37.8832 16.2787 38.2499 17.1C38.6166 17.9214 39.1592 18.5447 39.8779 18.97C40.5966 19.3954 41.4766 19.608 42.5179 19.608C43.0752 19.608 43.6252 19.542 44.1679 19.41C44.7106 19.2634 45.2239 19.0434 45.7079 18.75C46.0306 18.5594 46.3166 18.4787 46.5659 18.508C46.8299 18.5227 47.0499 18.6107 47.2259 18.772C47.4019 18.9334 47.5192 19.1387 47.5779 19.388C47.6366 19.6227 47.6219 19.872 47.5339 20.136C47.4459 20.3854 47.2699 20.6054 47.0059 20.796C46.4192 21.2214 45.7152 21.5514 44.8939 21.786C44.0872 22.006 43.2659 22.116 42.4299 22.116ZM53.577 22.116C52.3597 22.116 51.443 21.7714 50.827 21.082C50.211 20.378 49.903 19.3514 49.903 18.002V7.59602C49.903 7.14135 50.0204 6.79668 50.255 6.56202C50.4897 6.32735 50.827 6.21002 51.267 6.21002C51.707 6.21002 52.0444 6.32735 52.279 6.56202C52.5284 6.79668 52.653 7.14135 52.653 7.59602V17.87C52.653 18.5447 52.7924 19.0434 53.071 19.366C53.3644 19.6887 53.775 19.85 54.303 19.85C54.4204 19.85 54.5304 19.85 54.633 19.85C54.7357 19.8354 54.8384 19.8207 54.941 19.806C55.1464 19.7767 55.2857 19.8354 55.359 19.982C55.4324 20.114 55.469 20.3927 55.469 20.818C55.469 21.1847 55.3957 21.4707 55.249 21.676C55.1024 21.8814 54.8604 22.006 54.523 22.05C54.3764 22.0647 54.2224 22.0794 54.061 22.094C53.8997 22.1087 53.7384 22.116 53.577 22.116ZM58.2924 22.05C57.8524 22.05 57.5151 21.918 57.2804 21.654C57.0457 21.39 56.9284 21.0234 56.9284 20.554V12.48C56.9284 11.996 57.0457 11.6294 57.2804 11.38C57.5151 11.116 57.8524 10.984 58.2924 10.984C58.7324 10.984 59.0697 11.116 59.3044 11.38C59.5537 11.6294 59.6784 11.996 59.6784 12.48V20.554C59.6784 21.0234 59.5611 21.39 59.3264 21.654C59.0917 21.918 58.7471 22.05 58.2924 22.05ZM58.2924 8.93802C57.7791 8.93802 57.3757 8.81335 57.0824 8.56402C56.8037 8.30002 56.6644 7.94069 56.6644 7.48602C56.6644 7.01668 56.8037 6.65735 57.0824 6.40802C57.3757 6.15869 57.7791 6.03402 58.2924 6.03402C58.8204 6.03402 59.2237 6.15869 59.5024 6.40802C59.7811 6.65735 59.9204 7.01668 59.9204 7.48602C59.9204 7.94069 59.7811 8.30002 59.5024 8.56402C59.2237 8.81335 58.8204 8.93802 58.2924 8.93802ZM63.8998 22.072C63.4598 22.072 63.1225 21.9547 62.8878 21.72C62.6532 21.4707 62.5358 21.1187 62.5358 20.664V12.348C62.5358 11.8934 62.6532 11.5487 62.8878 11.314C63.1225 11.0794 63.4525 10.962 63.8778 10.962C64.3032 10.962 64.6332 11.0794 64.8678 11.314C65.1025 11.5487 65.2198 11.8934 65.2198 12.348V13.844L64.9778 13.294C65.3005 12.5167 65.7992 11.93 66.4738 11.534C67.1632 11.1234 67.9405 10.918 68.8058 10.918C69.6712 10.918 70.3825 11.0794 70.9398 11.402C71.4972 11.7247 71.9152 12.216 72.1938 12.876C72.4725 13.5214 72.6118 14.3427 72.6118 15.34V20.664C72.6118 21.1187 72.4945 21.4707 72.2598 21.72C72.0252 21.9547 71.6878 22.072 71.2478 22.072C70.8078 22.072 70.4632 21.9547 70.2138 21.72C69.9792 21.4707 69.8618 21.1187 69.8618 20.664V15.472C69.8618 14.636 69.7005 14.0274 69.3778 13.646C69.0698 13.2647 68.5858 13.074 67.9258 13.074C67.1192 13.074 66.4738 13.3307 65.9898 13.844C65.5205 14.3427 65.2858 15.01 65.2858 15.846V20.664C65.2858 21.6027 64.8238 22.072 63.8998 22.072ZM76.769 22.05C76.329 22.05 75.9916 21.918 75.757 21.654C75.5223 21.39 75.405 21.0234 75.405 20.554V12.48C75.405 11.996 75.5223 11.6294 75.757 11.38C75.9916 11.116 76.329 10.984 76.769 10.984C77.209 10.984 77.5463 11.116 77.781 11.38C78.0303 11.6294 78.155 11.996 78.155 12.48V20.554C78.155 21.0234 78.0376 21.39 77.803 21.654C77.5683 21.918 77.2236 22.05 76.769 22.05ZM76.769 8.93802C76.2556 8.93802 75.8523 8.81335 75.559 8.56402C75.2803 8.30002 75.141 7.94069 75.141 7.48602C75.141 7.01668 75.2803 6.65735 75.559 6.40802C75.8523 6.15869 76.2556 6.03402 76.769 6.03402C77.297 6.03402 77.7003 6.15869 77.979 6.40802C78.2576 6.65735 78.397 7.01668 78.397 7.48602C78.397 7.94069 78.2576 8.30002 77.979 8.56402C77.7003 8.81335 77.297 8.93802 76.769 8.93802ZM81.7604 22.006C81.4377 22.006 81.1664 21.918 80.9464 21.742C80.7411 21.5514 80.6311 21.3094 80.6164 21.016C80.6164 20.7227 80.7411 20.4147 80.9904 20.092L84.5544 15.692V16.99L81.2104 12.876C80.9464 12.5534 80.8217 12.2454 80.8364 11.952C80.8511 11.6587 80.9611 11.424 81.1664 11.248C81.3864 11.0574 81.6577 10.962 81.9804 10.962C82.3177 10.962 82.5964 11.0207 82.8164 11.138C83.0511 11.2554 83.2637 11.4387 83.4544 11.688L86.0944 15.076H85.1264L87.7884 11.688C87.9937 11.4387 88.2064 11.2554 88.4264 11.138C88.6464 11.0207 88.9177 10.962 89.2404 10.962C89.5777 10.962 89.8491 11.0574 90.0544 11.248C90.2597 11.4387 90.3624 11.6807 90.3624 11.974C90.3771 12.2674 90.2524 12.5754 89.9884 12.898L86.6664 16.968V15.736L90.2304 20.092C90.4944 20.4 90.6191 20.7007 90.6044 20.994C90.5897 21.2874 90.4724 21.5294 90.2524 21.72C90.0471 21.9107 89.7757 22.006 89.4384 22.006C89.1157 22.006 88.8444 21.9474 88.6244 21.83C88.4044 21.7127 88.1917 21.5294 87.9864 21.28L85.1264 17.672H86.0504L83.2124 21.28C83.0217 21.5147 82.8164 21.698 82.5964 21.83C82.3764 21.9474 82.0977 22.006 81.7604 22.006Z" fill="#0E0A2F"/>
<defs>
<clipPath id="clip0_56_3248">
<rect width="27.792" height="27.792" rx="6" fill="white"/>
</clipPath>
</defs>
</svg>
